<svg width="296" height="404" viewBox="0 0 296 404" fill="none" xmlns="http://www.w3.org/2000/svg">
<rect x="0.5" y="0.5" width="295" height="403" rx="12.5" fill="white" fill-opacity="0.08"/>
<rect x="0.5" y="0.5" width="295" height="403" rx="12.5" stroke="#5F5F5F"/>
<rect x="16" y="16" width="264" height="372" rx="5" fill="#743D76"/>
<rect x="28" y="28" width="240" height="240" fill="#505050"/>
<rect x="28" y="268" width="240" height="28" fill="#252525"/>
<g clip-path="url(#clip0_1_51)">
<rect x="43" y="352" width="42" height="24" rx="3" fill="#C0C0C0"/>
<rect x="46" y="355" width="36" height="18" rx="6" fill="#FBFBED"/>
</g>
<g clip-path="url(#clip1_1_51)">
<rect x="99" y="352" width="42" height="24" rx="3" fill="#C0C0C0"/>
<rect x="102" y="355" width="36" height="18" rx="6" fill="#FBFBED"/>
</g>
<g clip-path="url(#clip2_1_51)">
<rect x="155" y="352" width="42" height="24" rx="3" fill="#C0C0C0"/>
<rect x="158" y="355" width="36" height="18" rx="6" fill="#FBFBED"/>
</g>
<g clip-path="url(#clip3_1_51)">
<rect x="211" y="352" width="42" height="24" rx="3" fill="#C0C0C0"/>
<rect x="214" y="355" width="36" height="18" rx="6" fill="#FBFBED"/>
</g>
<rect width="25" height="23" transform="translate(52 320)" fill="white"/>
<rect width="25" height="23" transform="translate(107 320)" fill="white"/>
<rect width="25" height="23" transform="translate(163 320)" fill="white"/>
<rect width="25" height="23" transform="translate(219 320)" fill="white"/>
<path d="M246 325.104L253.109 325.104L253.109 326.945C253.109 327.274 253.069 327.582 252.987 327.868C252.909 328.155 252.797 328.415 252.65 328.649C252.53 328.854 252.382 329.037 252.206 329.196C252.034 329.359 251.845 329.501 251.64 329.621C251.389 329.761 251.112 329.868 250.81 329.943C250.507 330.021 250.185 330.061 249.843 330.061L249.257 330.061C248.928 330.061 248.617 330.025 248.324 329.953C248.031 329.882 247.763 329.781 247.519 329.65C247.3 329.527 247.099 329.382 246.913 329.216C246.731 329.05 246.578 328.868 246.454 328.669C246.308 328.438 246.195 328.182 246.117 327.902C246.039 327.626 246 327.329 246 327.014L246 325.104ZM251.996 326.486L247.104 326.486L247.104 327.014C247.104 327.183 247.125 327.341 247.167 327.487C247.209 327.634 247.271 327.767 247.353 327.888C247.437 328.011 247.545 328.122 247.675 328.22C247.808 328.321 247.963 328.407 248.139 328.479C248.292 328.537 248.461 328.581 248.646 328.61C248.835 328.643 249.039 328.659 249.257 328.659L249.853 328.659C250.058 328.659 250.251 328.643 250.434 328.61C250.619 328.581 250.788 328.537 250.941 328.479C251.124 328.407 251.286 328.312 251.43 328.195C251.573 328.081 251.69 327.948 251.781 327.795C251.85 327.678 251.902 327.548 251.937 327.404C251.977 327.264 251.996 327.111 251.996 326.945L251.996 326.486ZM246 334.514L246 333.142L251.454 333.142L250.81 331.345L251.991 331.345L253.109 334.44L253.109 334.514L246 334.514Z" fill="white"/>
<path d="M190 325.104L197.109 325.104L197.109 326.945C197.109 327.274 197.069 327.582 196.987 327.868C196.909 328.155 196.797 328.415 196.65 328.649C196.53 328.854 196.382 329.037 196.206 329.196C196.034 329.359 195.845 329.501 195.64 329.621C195.389 329.761 195.112 329.868 194.81 329.943C194.507 330.021 194.185 330.061 193.843 330.061L193.257 330.061C192.928 330.061 192.617 330.025 192.324 329.953C192.031 329.882 191.763 329.781 191.519 329.65C191.3 329.527 191.099 329.382 190.913 329.216C190.731 329.05 190.578 328.868 190.454 328.669C190.308 328.438 190.195 328.182 190.117 327.902C190.039 327.626 190 327.329 190 327.014L190 325.104ZM195.996 326.486L191.104 326.486L191.104 327.014C191.104 327.183 191.125 327.341 191.167 327.487C191.209 327.634 191.271 327.767 191.353 327.888C191.437 328.011 191.545 328.122 191.675 328.22C191.808 328.321 191.963 328.407 192.139 328.479C192.292 328.537 192.461 328.581 192.646 328.61C192.835 328.643 193.039 328.659 193.257 328.659L193.853 328.659C194.058 328.659 194.251 328.643 194.434 328.61C194.619 328.581 194.788 328.537 194.941 328.479C195.124 328.407 195.286 328.312 195.43 328.195C195.573 328.081 195.69 327.948 195.781 327.795C195.85 327.678 195.902 327.548 195.937 327.404C195.977 327.264 195.996 327.111 195.996 326.945L195.996 326.486ZM190 335.837L190 330.988L190.928 330.988L193.398 333.288C193.594 333.467 193.771 333.618 193.931 333.742C194.09 333.866 194.237 333.967 194.37 334.045C194.5 334.12 194.622 334.174 194.736 334.206C194.85 334.242 194.961 334.26 195.068 334.26C195.228 334.26 195.369 334.237 195.493 334.191C195.617 334.146 195.723 334.082 195.811 334.001C195.895 333.916 195.96 333.815 196.006 333.698C196.051 333.584 196.074 333.457 196.074 333.317C196.074 333.135 196.048 332.974 195.996 332.834C195.947 332.697 195.874 332.583 195.776 332.492C195.675 332.398 195.55 332.326 195.4 332.277C195.251 332.229 195.08 332.204 194.888 332.204L194.888 330.842C195.203 330.842 195.501 330.902 195.781 331.022C196.064 331.143 196.312 331.314 196.523 331.535C196.735 331.753 196.901 332.017 197.021 332.326C197.145 332.639 197.207 332.984 197.207 333.361C197.207 333.723 197.157 334.042 197.056 334.318C196.955 334.598 196.813 334.833 196.631 335.021C196.449 335.207 196.229 335.349 195.972 335.446C195.718 335.544 195.436 335.593 195.127 335.593C194.893 335.593 194.668 335.555 194.453 335.48C194.242 335.409 194.032 335.306 193.823 335.173C193.615 335.036 193.402 334.873 193.184 334.685C192.969 334.496 192.743 334.286 192.505 334.055L191.089 332.717L191.089 335.837L190 335.837Z" fill="white"/>
<path d="M134 325.104L141.109 325.104L141.109 326.945C141.109 327.274 141.069 327.582 140.987 327.868C140.909 328.155 140.797 328.415 140.65 328.649C140.53 328.854 140.382 329.037 140.206 329.196C140.034 329.359 139.845 329.501 139.64 329.621C139.389 329.761 139.112 329.868 138.81 329.943C138.507 330.021 138.185 330.061 137.843 330.061L137.257 330.061C136.928 330.061 136.617 330.025 136.324 329.953C136.031 329.882 135.763 329.781 135.519 329.65C135.3 329.527 135.099 329.382 134.913 329.216C134.731 329.05 134.578 328.868 134.454 328.669C134.308 328.438 134.195 328.182 134.117 327.902C134.039 327.626 134 327.329 134 327.014L134 325.104ZM139.996 326.486L135.104 326.486L135.104 327.014C135.104 327.183 135.125 327.341 135.167 327.487C135.209 327.634 135.271 327.767 135.353 327.888C135.437 328.011 135.545 328.122 135.675 328.22C135.808 328.321 135.963 328.407 136.139 328.479C136.292 328.537 136.461 328.581 136.646 328.61C136.835 328.643 137.039 328.659 137.257 328.659L137.853 328.659C138.058 328.659 138.251 328.643 138.434 328.61C138.619 328.581 138.788 328.537 138.941 328.479C139.124 328.407 139.286 328.312 139.43 328.195C139.573 328.081 139.69 327.948 139.781 327.795C139.85 327.678 139.902 327.548 139.937 327.404C139.977 327.264 139.996 327.111 139.996 326.945L139.996 326.486ZM138.15 332.556L138.15 333.293C138.15 333.488 138.176 333.656 138.229 333.796C138.284 333.939 138.36 334.055 138.458 334.143C138.543 334.224 138.645 334.284 138.766 334.323C138.889 334.366 139.023 334.387 139.166 334.387C139.306 334.387 139.433 334.366 139.547 334.323C139.664 334.284 139.765 334.224 139.85 334.143C139.931 334.061 139.994 333.957 140.04 333.83C140.086 333.706 140.108 333.562 140.108 333.396C140.108 333.259 140.089 333.13 140.05 333.01C140.011 332.893 139.955 332.79 139.884 332.702C139.809 332.611 139.719 332.539 139.615 332.487C139.511 332.435 139.394 332.409 139.264 332.409L139.264 331.052C139.553 331.052 139.817 331.11 140.055 331.228C140.292 331.348 140.497 331.512 140.67 331.721C140.839 331.929 140.971 332.173 141.065 332.453C141.16 332.736 141.207 333.041 141.207 333.366C141.207 333.718 141.163 334.04 141.075 334.333C140.991 334.626 140.864 334.877 140.694 335.085C140.522 335.293 140.309 335.454 140.055 335.568C139.804 335.686 139.513 335.744 139.181 335.744C139.028 335.744 138.876 335.721 138.727 335.676C138.58 335.63 138.44 335.563 138.307 335.476C138.173 335.388 138.049 335.279 137.936 335.148C137.825 335.018 137.729 334.868 137.647 334.699C137.576 334.898 137.485 335.069 137.374 335.212C137.263 335.358 137.138 335.479 136.998 335.573C136.855 335.668 136.699 335.738 136.529 335.783C136.36 335.829 136.181 335.852 135.992 335.852C135.66 335.852 135.364 335.788 135.104 335.661C134.843 335.534 134.625 335.36 134.449 335.139C134.27 334.917 134.133 334.654 134.039 334.348C133.948 334.045 133.902 333.718 133.902 333.366C133.902 333.063 133.943 332.767 134.024 332.478C134.109 332.191 134.236 331.936 134.405 331.711C134.571 331.486 134.781 331.306 135.035 331.169C135.289 331.035 135.589 330.969 135.934 330.969L135.934 332.326C135.797 332.326 135.67 332.352 135.553 332.404C135.439 332.456 135.341 332.531 135.26 332.629C135.175 332.723 135.108 332.836 135.06 332.966C135.014 333.096 134.991 333.239 134.991 333.396C134.991 333.571 135.016 333.729 135.064 333.869C135.113 334.009 135.185 334.126 135.279 334.221C135.364 334.312 135.468 334.38 135.592 334.426C135.715 334.475 135.854 334.499 136.007 334.499C136.199 334.499 136.363 334.471 136.5 334.416C136.637 334.361 136.749 334.281 136.837 334.177C136.925 334.069 136.99 333.941 137.032 333.791C137.075 333.645 137.096 333.479 137.096 333.293L137.096 332.556L138.15 332.556Z" fill="white"/>
<path d="M79 325.104L86.1094 325.104L86.1094 326.945C86.1094 327.274 86.0687 327.582 85.9873 327.868C85.9092 328.155 85.7969 328.415 85.6504 328.649C85.5299 328.854 85.3818 329.037 85.2061 329.196C85.0335 329.359 84.8447 329.501 84.6396 329.621C84.389 329.761 84.1123 329.868 83.8096 329.943C83.5068 330.021 83.1846 330.061 82.8428 330.061L82.2568 330.061C81.9281 330.061 81.6172 330.025 81.3242 329.953C81.0312 329.882 80.7627 329.781 80.5186 329.65C80.3005 329.527 80.0986 329.382 79.9131 329.216C79.7308 329.05 79.5778 328.868 79.4541 328.669C79.3076 328.438 79.1953 328.182 79.1172 327.902C79.0391 327.626 79 327.329 79 327.014L79 325.104ZM84.9961 326.486L80.1035 326.486L80.1035 327.014C80.1035 327.183 80.1247 327.341 80.167 327.487C80.2093 327.634 80.2712 327.767 80.3525 327.888C80.4372 328.011 80.5446 328.122 80.6748 328.22C80.8083 328.321 80.9629 328.407 81.1387 328.479C81.2917 328.537 81.4609 328.581 81.6465 328.61C81.8353 328.643 82.0387 328.659 82.2568 328.659L82.8525 328.659C83.0576 328.659 83.2513 328.643 83.4336 328.61C83.6191 328.581 83.7884 328.537 83.9414 328.479C84.1237 328.407 84.2865 328.312 84.4297 328.195C84.5729 328.081 84.6901 327.948 84.7812 327.795C84.8496 327.678 84.9017 327.548 84.9375 327.404C84.9766 327.264 84.9961 327.111 84.9961 326.945L84.9961 326.486ZM81.6416 335.153L81.6416 335.979L80.543 335.979L80.543 335.153L79 335.153L79 333.796L80.543 333.796L80.543 330.842L81.3926 330.788L86.1094 333.776L86.1094 335.153L81.6416 335.153ZM81.6416 332.121L81.6416 333.796L84.2832 333.796L84.0488 333.664L81.6416 332.121Z" fill="white"/>
<path d="M256.855 358.822C256.982 358.822 257.101 358.799 257.212 358.754C257.323 358.712 257.427 358.638 257.524 358.534C257.619 358.427 257.705 358.287 257.783 358.114C257.865 357.945 257.939 357.733 258.008 357.479C258.115 357.086 258.245 356.739 258.398 356.439C258.551 356.143 258.719 355.901 258.901 355.712C259.084 355.523 259.285 355.38 259.507 355.282C259.728 355.188 259.969 355.141 260.229 355.141C260.529 355.141 260.801 355.204 261.045 355.331C261.289 355.458 261.497 355.634 261.67 355.858C261.842 356.083 261.974 356.348 262.065 356.654C262.16 356.96 262.207 357.292 262.207 357.65C262.207 358.021 262.153 358.36 262.046 358.666C261.938 358.975 261.789 359.241 261.597 359.462C261.401 359.683 261.17 359.856 260.903 359.979C260.636 360.103 260.343 360.165 260.024 360.165L260.024 358.827C260.184 358.821 260.33 358.791 260.464 358.739C260.597 358.69 260.713 358.617 260.811 358.52C260.905 358.419 260.978 358.293 261.03 358.144C261.086 357.997 261.113 357.825 261.113 357.626C261.113 357.444 261.09 357.281 261.045 357.138C261.003 356.998 260.942 356.879 260.864 356.781C260.783 356.684 260.687 356.609 260.576 356.557C260.469 356.508 260.352 356.483 260.225 356.483C260.091 356.483 259.971 356.516 259.863 356.581C259.756 356.649 259.66 356.747 259.575 356.874C259.487 357.001 259.408 357.154 259.336 357.333C259.264 357.515 259.198 357.72 259.136 357.948C259.067 358.192 258.984 358.425 258.887 358.646C258.789 358.868 258.677 359.071 258.55 359.257C258.341 359.537 258.099 359.76 257.822 359.926C257.546 360.092 257.227 360.175 256.865 360.175C256.553 360.175 256.274 360.111 256.03 359.984C255.789 359.861 255.586 359.688 255.42 359.467C255.251 359.245 255.122 358.982 255.034 358.676C254.95 358.37 254.907 358.036 254.907 357.675C254.907 357.32 254.959 356.968 255.063 356.62C255.171 356.275 255.327 355.974 255.532 355.717C255.734 355.473 255.972 355.279 256.245 355.136C256.519 354.996 256.839 354.926 257.207 354.926L257.207 356.273C256.992 356.28 256.808 356.317 256.655 356.386C256.502 356.454 256.377 356.55 256.279 356.674C256.182 356.794 256.11 356.939 256.064 357.108C256.019 357.281 255.996 357.47 255.996 357.675C255.996 357.857 256.017 358.018 256.06 358.158C256.102 358.301 256.16 358.422 256.235 358.52C256.31 358.617 256.4 358.692 256.504 358.744C256.611 358.796 256.729 358.822 256.855 358.822ZM255 361.601L262.109 360.624L262.109 361.879L258.135 362.353L257.856 362.387L258.149 362.431L262.109 362.992L262.109 363.974L258.12 364.569L257.827 364.613L258.125 364.647L262.109 365.131L262.109 366.391L255 365.404L255 364.164L258.838 363.544L259.199 363.49L258.838 363.437L255 362.841L255 361.601ZM255 370.517L255 369.145L260.454 369.145L259.81 367.348L260.991 367.348L262.109 370.443L262.109 370.517L255 370.517Z" fill="white"/>
<path d="M200.855 358.822C200.982 358.822 201.101 358.799 201.212 358.754C201.323 358.712 201.427 358.638 201.524 358.534C201.619 358.427 201.705 358.287 201.783 358.114C201.865 357.945 201.939 357.733 202.008 357.479C202.115 357.086 202.245 356.739 202.398 356.439C202.551 356.143 202.719 355.901 202.901 355.712C203.084 355.523 203.285 355.38 203.507 355.282C203.728 355.188 203.969 355.141 204.229 355.141C204.529 355.141 204.801 355.204 205.045 355.331C205.289 355.458 205.497 355.634 205.67 355.858C205.842 356.083 205.974 356.348 206.065 356.654C206.16 356.96 206.207 357.292 206.207 357.65C206.207 358.021 206.153 358.36 206.046 358.666C205.938 358.975 205.789 359.241 205.597 359.462C205.401 359.683 205.17 359.856 204.903 359.979C204.636 360.103 204.343 360.165 204.024 360.165L204.024 358.827C204.184 358.821 204.33 358.791 204.464 358.739C204.597 358.69 204.713 358.617 204.811 358.52C204.905 358.419 204.978 358.293 205.03 358.144C205.086 357.997 205.113 357.825 205.113 357.626C205.113 357.444 205.09 357.281 205.045 357.138C205.003 356.998 204.942 356.879 204.864 356.781C204.783 356.684 204.687 356.609 204.576 356.557C204.469 356.508 204.352 356.483 204.225 356.483C204.091 356.483 203.971 356.516 203.863 356.581C203.756 356.649 203.66 356.747 203.575 356.874C203.487 357.001 203.408 357.154 203.336 357.333C203.264 357.515 203.198 357.72 203.136 357.948C203.067 358.192 202.984 358.425 202.887 358.646C202.789 358.868 202.677 359.071 202.55 359.257C202.341 359.537 202.099 359.76 201.822 359.926C201.546 360.092 201.227 360.175 200.865 360.175C200.553 360.175 200.274 360.111 200.03 359.984C199.789 359.861 199.586 359.688 199.42 359.467C199.251 359.245 199.122 358.982 199.034 358.676C198.95 358.37 198.907 358.036 198.907 357.675C198.907 357.32 198.959 356.968 199.063 356.62C199.171 356.275 199.327 355.974 199.532 355.717C199.734 355.473 199.972 355.279 200.245 355.136C200.519 354.996 200.839 354.926 201.207 354.926L201.207 356.273C200.992 356.28 200.808 356.317 200.655 356.386C200.502 356.454 200.377 356.55 200.279 356.674C200.182 356.794 200.11 356.939 200.064 357.108C200.019 357.281 199.996 357.47 199.996 357.675C199.996 357.857 200.017 358.018 200.06 358.158C200.102 358.301 200.16 358.422 200.235 358.52C200.31 358.617 200.4 358.692 200.504 358.744C200.611 358.796 200.729 358.822 200.855 358.822ZM199 361.601L206.109 360.624L206.109 361.879L202.135 362.353L201.856 362.387L202.149 362.431L206.109 362.992L206.109 363.974L202.12 364.569L201.827 364.613L202.125 364.647L206.109 365.131L206.109 366.391L199 365.404L199 364.164L202.838 363.544L203.199 363.49L202.838 363.437L199 362.841L199 361.601ZM199 371.84L199 366.991L199.928 366.991L202.398 369.291C202.594 369.47 202.771 369.621 202.931 369.745C203.09 369.869 203.237 369.97 203.37 370.048C203.5 370.123 203.622 370.176 203.736 370.209C203.85 370.245 203.961 370.263 204.068 370.263C204.228 370.263 204.369 370.24 204.493 370.194C204.617 370.149 204.723 370.085 204.811 370.004C204.895 369.919 204.96 369.818 205.006 369.701C205.051 369.587 205.074 369.46 205.074 369.32C205.074 369.138 205.048 368.977 204.996 368.837C204.947 368.7 204.874 368.586 204.776 368.495C204.675 368.401 204.55 368.329 204.4 368.28C204.251 368.231 204.08 368.207 203.888 368.207L203.888 366.845C204.203 366.845 204.501 366.905 204.781 367.025C205.064 367.146 205.312 367.317 205.523 367.538C205.735 367.756 205.901 368.02 206.021 368.329C206.145 368.642 206.207 368.987 206.207 369.364C206.207 369.726 206.157 370.045 206.056 370.321C205.955 370.601 205.813 370.836 205.631 371.024C205.449 371.21 205.229 371.352 204.972 371.449C204.718 371.547 204.436 371.596 204.127 371.596C203.893 371.596 203.668 371.558 203.453 371.483C203.242 371.412 203.032 371.309 202.823 371.176C202.615 371.039 202.402 370.876 202.184 370.687C201.969 370.499 201.743 370.289 201.505 370.058L200.089 368.72L200.089 371.84L199 371.84Z" fill="white"/>
<path d="M143.855 359.822C143.982 359.822 144.101 359.799 144.212 359.754C144.323 359.712 144.427 359.638 144.524 359.534C144.619 359.427 144.705 359.287 144.783 359.114C144.865 358.945 144.939 358.733 145.008 358.479C145.115 358.086 145.245 357.739 145.398 357.439C145.551 357.143 145.719 356.901 145.901 356.712C146.084 356.523 146.285 356.38 146.507 356.282C146.728 356.188 146.969 356.141 147.229 356.141C147.529 356.141 147.801 356.204 148.045 356.331C148.289 356.458 148.497 356.634 148.67 356.858C148.842 357.083 148.974 357.348 149.065 357.654C149.16 357.96 149.207 358.292 149.207 358.65C149.207 359.021 149.153 359.36 149.046 359.666C148.938 359.975 148.789 360.241 148.597 360.462C148.401 360.683 148.17 360.856 147.903 360.979C147.636 361.103 147.343 361.165 147.024 361.165L147.024 359.827C147.184 359.821 147.33 359.791 147.464 359.739C147.597 359.69 147.713 359.617 147.811 359.52C147.905 359.419 147.978 359.293 148.03 359.144C148.086 358.997 148.113 358.825 148.113 358.626C148.113 358.444 148.09 358.281 148.045 358.138C148.003 357.998 147.942 357.879 147.864 357.781C147.783 357.684 147.687 357.609 147.576 357.557C147.469 357.508 147.352 357.483 147.225 357.483C147.091 357.483 146.971 357.516 146.863 357.581C146.756 357.649 146.66 357.747 146.575 357.874C146.487 358.001 146.408 358.154 146.336 358.333C146.264 358.515 146.198 358.72 146.136 358.948C146.067 359.192 145.984 359.425 145.887 359.646C145.789 359.868 145.677 360.071 145.55 360.257C145.341 360.537 145.099 360.76 144.822 360.926C144.546 361.092 144.227 361.175 143.865 361.175C143.553 361.175 143.274 361.111 143.03 360.984C142.789 360.861 142.586 360.688 142.42 360.467C142.251 360.245 142.122 359.982 142.034 359.676C141.95 359.37 141.907 359.036 141.907 358.675C141.907 358.32 141.959 357.968 142.063 357.62C142.171 357.275 142.327 356.974 142.532 356.717C142.734 356.473 142.972 356.279 143.245 356.136C143.519 355.996 143.839 355.926 144.207 355.926L144.207 357.273C143.992 357.28 143.808 357.317 143.655 357.386C143.502 357.454 143.377 357.55 143.279 357.674C143.182 357.794 143.11 357.939 143.064 358.108C143.019 358.281 142.996 358.47 142.996 358.675C142.996 358.857 143.017 359.018 143.06 359.158C143.102 359.301 143.16 359.422 143.235 359.52C143.31 359.617 143.4 359.692 143.504 359.744C143.611 359.796 143.729 359.822 143.855 359.822ZM142 362.601L149.109 361.624L149.109 362.879L145.135 363.353L144.856 363.387L145.149 363.431L149.109 363.992L149.109 364.974L145.12 365.569L144.827 365.613L145.125 365.647L149.109 366.131L149.109 367.391L142 366.404L142 365.164L145.838 364.544L146.199 364.49L145.838 364.437L142 363.841L142 362.601ZM146.15 369.559L146.15 370.296C146.15 370.491 146.176 370.659 146.229 370.799C146.284 370.942 146.36 371.058 146.458 371.146C146.543 371.227 146.645 371.287 146.766 371.326C146.889 371.368 147.023 371.39 147.166 371.39C147.306 371.39 147.433 371.368 147.547 371.326C147.664 371.287 147.765 371.227 147.85 371.146C147.931 371.064 147.994 370.96 148.04 370.833C148.086 370.709 148.108 370.564 148.108 370.398C148.108 370.262 148.089 370.133 148.05 370.013C148.011 369.896 147.955 369.793 147.884 369.705C147.809 369.614 147.719 369.542 147.615 369.49C147.511 369.438 147.394 369.412 147.264 369.412L147.264 368.055C147.553 368.055 147.817 368.113 148.055 368.23C148.292 368.351 148.497 368.515 148.67 368.724C148.839 368.932 148.971 369.176 149.065 369.456C149.16 369.739 149.207 370.044 149.207 370.369C149.207 370.721 149.163 371.043 149.075 371.336C148.991 371.629 148.864 371.88 148.694 372.088C148.522 372.296 148.309 372.457 148.055 372.571C147.804 372.688 147.513 372.747 147.181 372.747C147.028 372.747 146.876 372.724 146.727 372.679C146.58 372.633 146.44 372.566 146.307 372.479C146.173 372.391 146.049 372.282 145.936 372.151C145.825 372.021 145.729 371.871 145.647 371.702C145.576 371.901 145.485 372.072 145.374 372.215C145.263 372.361 145.138 372.482 144.998 372.576C144.855 372.671 144.699 372.741 144.529 372.786C144.36 372.832 144.181 372.854 143.992 372.854C143.66 372.854 143.364 372.791 143.104 372.664C142.843 372.537 142.625 372.363 142.449 372.142C142.27 371.92 142.133 371.657 142.039 371.351C141.948 371.048 141.902 370.721 141.902 370.369C141.902 370.066 141.943 369.77 142.024 369.48C142.109 369.194 142.236 368.938 142.405 368.714C142.571 368.489 142.781 368.309 143.035 368.172C143.289 368.038 143.589 367.972 143.934 367.972L143.934 369.329C143.797 369.329 143.67 369.355 143.553 369.407C143.439 369.459 143.341 369.534 143.26 369.632C143.175 369.726 143.108 369.839 143.06 369.969C143.014 370.099 142.991 370.242 142.991 370.398C142.991 370.574 143.016 370.732 143.064 370.872C143.113 371.012 143.185 371.129 143.279 371.224C143.364 371.315 143.468 371.383 143.592 371.429C143.715 371.478 143.854 371.502 144.007 371.502C144.199 371.502 144.363 371.474 144.5 371.419C144.637 371.364 144.749 371.284 144.837 371.18C144.925 371.072 144.99 370.944 145.032 370.794C145.075 370.647 145.096 370.481 145.096 370.296L145.096 369.559L146.15 369.559Z" fill="white"/>
<path d="M87.8555 358.822C87.9824 358.822 88.1012 358.799 88.2119 358.754C88.3226 358.712 88.4268 358.638 88.5244 358.534C88.6188 358.427 88.7051 358.287 88.7832 358.114C88.8646 357.945 88.9395 357.733 89.0078 357.479C89.1152 357.086 89.2454 356.739 89.3984 356.439C89.5514 356.143 89.7191 355.901 89.9014 355.712C90.0837 355.523 90.2855 355.38 90.5068 355.282C90.7282 355.188 90.9691 355.141 91.2295 355.141C91.529 355.141 91.8008 355.204 92.0449 355.331C92.2891 355.458 92.4974 355.634 92.6699 355.858C92.8424 356.083 92.9743 356.348 93.0654 356.654C93.1598 356.96 93.207 357.292 93.207 357.65C93.207 358.021 93.1533 358.36 93.0459 358.666C92.9385 358.975 92.7887 359.241 92.5967 359.462C92.4014 359.683 92.1702 359.856 91.9033 359.979C91.6364 360.103 91.3434 360.165 91.0244 360.165L91.0244 358.827C91.1839 358.821 91.3304 358.791 91.4639 358.739C91.5973 358.69 91.7129 358.617 91.8105 358.52C91.9049 358.419 91.9782 358.293 92.0303 358.144C92.0856 357.997 92.1133 357.825 92.1133 357.626C92.1133 357.444 92.0905 357.281 92.0449 357.138C92.0026 356.998 91.9424 356.879 91.8643 356.781C91.7829 356.684 91.6868 356.609 91.5762 356.557C91.4687 356.508 91.3516 356.483 91.2246 356.483C91.0911 356.483 90.9707 356.516 90.8633 356.581C90.7559 356.649 90.6598 356.747 90.5752 356.874C90.4873 357.001 90.4076 357.154 90.3359 357.333C90.2643 357.515 90.1976 357.72 90.1357 357.948C90.0674 358.192 89.9844 358.425 89.8867 358.646C89.7891 358.868 89.6768 359.071 89.5498 359.257C89.3415 359.537 89.099 359.76 88.8223 359.926C88.5456 360.092 88.2266 360.175 87.8652 360.175C87.5527 360.175 87.2744 360.111 87.0303 359.984C86.7894 359.861 86.5859 359.688 86.4199 359.467C86.2507 359.245 86.1221 358.982 86.0342 358.676C85.9495 358.37 85.9072 358.036 85.9072 357.675C85.9072 357.32 85.9593 356.968 86.0635 356.62C86.1709 356.275 86.3271 355.974 86.5322 355.717C86.734 355.473 86.9717 355.279 87.2451 355.136C87.5186 354.996 87.8392 354.926 88.207 354.926L88.207 356.273C87.9922 356.28 87.8083 356.317 87.6553 356.386C87.5023 356.454 87.377 356.55 87.2793 356.674C87.1816 356.794 87.11 356.939 87.0645 357.108C87.0189 357.281 86.9961 357.47 86.9961 357.675C86.9961 357.857 87.0173 358.018 87.0596 358.158C87.1019 358.301 87.1605 358.422 87.2354 358.52C87.3102 358.617 87.3997 358.692 87.5039 358.744C87.6113 358.796 87.7285 358.822 87.8555 358.822ZM86 361.601L93.1094 360.624L93.1094 361.879L89.1348 362.353L88.8564 362.387L89.1494 362.431L93.1094 362.992L93.1094 363.974L89.1201 364.569L88.8271 364.613L89.125 364.647L93.1094 365.131L93.1094 366.391L86 365.404L86 364.164L89.8379 363.544L90.1992 363.49L89.8379 363.437L86 362.841L86 361.601ZM88.6416 371.156L88.6416 371.981L87.543 371.981L87.543 371.156L86 371.156L86 369.799L87.543 369.799L87.543 366.845L88.3926 366.791L93.1094 369.779L93.1094 371.156L88.6416 371.156ZM88.6416 368.124L88.6416 369.799L91.2832 369.799L91.0488 369.667L88.6416 368.124Z" fill="white"/>
<path d="M268 50H283C285.209 50 287 51.7909 287 54V97C287 99.2091 285.209 101 283 101H268V50Z" fill="#D9D9D9"/>
<rect x="280" y="296" width="15" height="17" fill="url(#paint0_linear_1_51)" fill-opacity="0.48"/>
<rect x="16" y="296" width="264" height="17" fill="url(#paint1_linear_1_51)" fill-opacity="0.29"/>
<rect x="1" y="296" width="15" height="17" fill="url(#paint2_linear_1_51)" fill-opacity="0.48"/>
<defs>
<linearGradient id="paint0_linear_1_51" x1="287.5" y1="296" x2="287.5" y2="313" gradientUnits="userSpaceOnUse">
<stop/>
<stop offset="1" stop-opacity="0"/>
</linearGradient>
<linearGradient id="paint1_linear_1_51" x1="148" y1="296" x2="148" y2="313" gradientUnits="userSpaceOnUse">
<stop/>
<stop offset="1" stop-opacity="0"/>
</linearGradient>
<linearGradient id="paint2_linear_1_51" x1="8.5" y1="296" x2="8.5" y2="313" gradientUnits="userSpaceOnUse">
<stop/>
<stop offset="1" stop-opacity="0"/>
</linearGradient>
<clipPath id="clip0_1_51">
<rect width="42" height="24" fill="white" transform="translate(43 352)"/>
</clipPath>
<clipPath id="clip1_1_51">
<rect width="42" height="24" fill="white" transform="translate(99 352)"/>
</clipPath>
<clipPath id="clip2_1_51">
<rect width="42" height="24" fill="white" transform="translate(155 352)"/>
</clipPath>
<clipPath id="clip3_1_51">
<rect width="42" height="24" fill="white" transform="translate(211 352)"/>
</clipPath>
</defs>
</svg>
