<svg width="128" height="128" viewBox="0 0 128 128" fill="none" xmlns="http://www.w3.org/2000/svg">
<rect width="128" height="128" fill="#FFCC48"/>
<circle cx="63.5" cy="37.5" r="18.5" fill="white"/>
<ellipse cx="63.5" cy="69" rx="18.5" ry="25" fill="white"/>
<path d="M77 17L71.5 22L77 28.5V17Z" fill="white"/>
<path d="M48 17L53.5 22L48 28.5V17Z" fill="white"/>
<path d="M114 50.5L74.5 55.5L80.5 74L99.5 83.5L106 74L89 66L92.5 63.5L110.5 66L114 50.5Z" fill="white"/>
<path d="M14 50.5L53.5 55.5L47.5 74L28.5 83.5L22 74L39 66L35.5 63.5L17.5 66L14 50.5Z" fill="white"/>
<path d="M57.2368 70.0578C57.6862 69.8293 58.1601 70.3241 57.885 70.7336C56.3918 72.9566 54.9779 76.6971 57.2307 81.5145C60.9875 89.5479 63.2735 93.7086 63.2735 93.7086C63.2735 93.7086 64.4894 88.8531 67.7855 84.5358C70.9578 80.3808 72.6941 75.155 69.8949 70.8017C69.6322 70.3931 70.0954 69.9111 70.5418 70.1295C74.0069 71.825 77.8933 75.2259 78.3318 81.9935C78.4934 84.0615 78.251 86.9568 77.0385 90.6103C75.4795 95.2408 73.563 97.4015 72.4541 98.3294C72.1224 98.6069 71.6066 98.3609 71.6338 97.9402C71.9569 92.9439 69.9918 91.676 68.8733 94.5333C68.4266 95.6746 68.1661 97.6486 68.1661 100.052C68.1661 104.055 66.9522 108.174 64.276 111.522C63.5801 112.393 62.7658 113.206 61.8315 113.9C61.4933 114.151 61.003 113.899 61.0339 113.49C61.2394 110.777 61.0533 103.002 53.9217 93.7124C47.4554 85.0956 49.9611 78.478 50.8502 76.6856C52.5501 73.252 54.9212 71.2355 57.2368 70.0578Z" fill="white"/>
</svg>
